<svg xmlns="http://www.w3.org/2000/svg" fill="none" viewBox="0 0 101 44"><path fill="#fff" fill-rule="evenodd" d="M0 43.674h43.519L31.835 31.991a12.838 12.838 0 0 0 1.545-2.08c1.269-2.148 1.903-4.618 1.903-7.411 0-2.793-.634-5.25-1.903-7.37-1.27-2.149-3.054-3.8-5.354-4.955-2.3-1.181-4.93-1.772-7.891-1.772H8.247L0 .156v43.518zm13.155-30.363v18.856h6.742c2.035 0 3.82-.39 5.353-1.168 1.25-.646 2.262-1.498 3.037-2.557l3.548 3.549c-1.055 1.154-2.325 2.112-3.809 2.874-2.3 1.155-4.93 1.732-7.891 1.732H8V8.403h.247l4.908 4.908zm0 0v-.478h6.742c2.035 0 3.82.403 5.353 1.209 1.56.778 2.75 1.906 3.57 3.383.845 1.45 1.268 3.142 1.268 5.075 0 1.933-.423 3.638-1.269 5.115-.163.289-.34.564-.532.827L13.155 13.311z" clip-rule="evenodd"/><path fill="#fff" d="M47.583 29c-1.245 0-2.369-.277-3.37-.83a6.189 6.189 0 0 1-2.357-2.33c-.57-.999-.856-2.112-.856-3.34 0-1.228.285-2.335.856-3.322.57-1 1.356-1.776 2.357-2.33 1.001-.565 2.125-.848 3.37-.848 1.246 0 2.37.283 3.37.849a6.06 6.06 0 0 1 2.358 2.31c.57.988.856 2.101.856 3.341 0 1.24-.285 2.353-.856 3.34a6.189 6.189 0 0 1-2.357 2.33c-1.002.553-2.125.83-3.37.83zm0-2.058c.815 0 1.549-.187 2.2-.56a4.129 4.129 0 0 0 1.537-1.589c.373-.686.56-1.45.56-2.293 0-.843-.187-1.6-.56-2.275a3.97 3.97 0 0 0-1.536-1.589c-.652-.385-1.386-.578-2.2-.578-.816 0-1.549.193-2.2.578a3.97 3.97 0 0 0-1.538 1.589c-.372.674-.558 1.432-.558 2.275s.186 1.607.558 2.293a4.129 4.129 0 0 0 1.537 1.589c.652.373 1.385.56 2.2.56zM69.548 28.82l-.018-8.378-4.016 6.933H64.5l-4.016-6.825v8.27h-2.166V16.18h1.869l4.854 8.378 4.768-8.377h1.868l.017 12.638h-2.147zM82 29c-1.688 0-3.004-.488-3.947-1.462-.943-.988-1.414-2.396-1.414-4.226v-7.131h2.27v7.041c0 2.48 1.036 3.72 3.108 3.72 2.06 0 3.091-1.24 3.091-3.72v-7.041h2.235v7.131c0 1.83-.471 3.238-1.414 4.226-.932.974-2.241 1.462-3.93 1.462zM96.058 29a9.125 9.125 0 0 1-2.742-.415c-.873-.277-1.565-.644-2.078-1.102l.786-1.823c.5.409 1.112.746 1.834 1.01.733.254 1.467.38 2.2.38.908 0 1.583-.15 2.026-.451.454-.301.68-.698.68-1.192 0-.361-.127-.656-.383-.885a2.464 2.464 0 0 0-.943-.56 20.654 20.654 0 0 0-1.572-.45c-.931-.23-1.688-.458-2.27-.687a3.844 3.844 0 0 1-1.484-1.065c-.408-.494-.612-1.156-.612-1.986 0-.698.18-1.33.542-1.896.372-.578.925-1.035 1.659-1.372.745-.337 1.653-.506 2.724-.506.745 0 1.478.096 2.2.289.722.192 1.345.47 1.869.83l-.716 1.824a6.94 6.94 0 0 0-1.677-.74 6.08 6.08 0 0 0-1.694-.253c-.896 0-1.565.157-2.008.47-.43.312-.646.728-.646 1.245 0 .361.122.656.367.885.256.229.576.41.96.542.384.132.908.283 1.572.451.908.217 1.653.445 2.235.686a3.677 3.677 0 0 1 1.484 1.065c.419.482.629 1.132.629 1.95a3.37 3.37 0 0 1-.559 1.896c-.361.566-.914 1.017-1.659 1.354-.745.337-1.653.506-2.724.506z"/></svg>